<?xml version="1.0" encoding="utf-8"?>
<!-- Generator: Adobe Illustrator 22.1.0, SVG Export Plug-In . SVG Version: 6.00 Build 0)  -->
<svg version="1.1" xmlns="http://www.w3.org/2000/svg" xmlns:xlink="http://www.w3.org/1999/xlink" x="0px" y="0px"
	 viewBox="0 0 221.9 240.1" style="enable-background:new 0 0 221.9 240.1;" xml:space="preserve">
<style type="text/css">
	.st0{fill:url(#SVGID_1_);}
	.st1{fill:url(#SVGID_2_);}
	.st2{fill:url(#SVGID_3_);}
	.st3{display:none;fill:url(#SVGID_4_);}
	.st4{fill:url(#SVGID_5_);}
	.st5{fill:#231F20;}
	.st6{fill:url(#SVGID_6_);}
	.st7{fill:#FFFFFF;}
	.st8{fill:url(#SVGID_7_);}
	.st9{fill:url(#SVGID_8_);}
</style>
<g id="BACKGROUND">
</g>
<g id="OBJECTS">
	<linearGradient id="SVGID_1_" gradientUnits="userSpaceOnUse" x1="147.7668" y1="55.6792" x2="123.5663" y2="167.6469">
		<stop  offset="0" style="stop-color:#B94503"/>
		<stop  offset="0.51" style="stop-color:#E86C00"/>
		<stop  offset="1" style="stop-color:#BD4803"/>
	</linearGradient>
	<path class="st0" d="M128,58.9l-1.6,0.2l-2.4,1.5l-0.1,5.3c10.8-1.2,19.5,27.6,19.2,54.1c-0.3,21.4-4.6,34.1-9.7,41.7
		c-9.3,13.4-18.8,6-18.8,6l-4,3.5l5.6,3.6l1.9-0.4c1.9,1.6,4.8,3.6,7.2,3.1c12-2.5,27.8-18.5,27.8-49.7C153,61.5,128,58.9,128,58.9z
		"/>
	<linearGradient id="SVGID_2_" gradientUnits="userSpaceOnUse" x1="106.9725" y1="65.7187" x2="89.8421" y2="174.319">
		<stop  offset="0" style="stop-color:#B94503"/>
		<stop  offset="1" style="stop-color:#E86C00"/>
	</linearGradient>
	<path class="st1" d="M117.9,117.9c0,15.8-3.2,37.7-17.6,47.6c0,0,0,0,0,0l0,0c-2.4,1.5-4.7,2.5-6.8,3.1c-0.6,0.1-1.2,0.1-1.8,0.1
		c-3,0.2-6.3,0.1-9-1l0.6-1.9l-0.6-0.2l-2.1-3.1l1.4-2c0,0,0.1,0.1,0.3,0.2c5,2.5,11,1.6,14.9-2.4c5.5-5.7,12.3-17.4,12.3-40.1
		c0-24.1-9-38.4-12.1-42.3c-4-5-8.2-6.9-11.3-8l4.6-4.3c0-0.3,0.1-0.5,0.2-0.6c0.1,0,0.3,0,0.7,0c0.6-0.1,1.4-0.2,2.4,0
		c0.6,0,1.1,0,1.1,0s0.1,0,0.2,0.1c0,0,0.1,0.1,0.1,0.1c1.4,0.8,6.2,3.9,10.8,11.3c0.1,0.2,0.2,0.3,0.3,0.5c0.1,0.2,0.2,0.4,0.4,0.6
		c0.1,0.2,0.3,0.4,0.4,0.7c0.4,0.8,0.9,1.6,1.3,2.4C113.2,87.5,117.9,100.8,117.9,117.9z"/>
	<linearGradient id="SVGID_3_" gradientUnits="userSpaceOnUse" x1="152.6322" y1="91.6149" x2="167.7035" y2="91.6149">
		<stop  offset="0" style="stop-color:#FFA635"/>
		<stop  offset="1" style="stop-color:#FAE377"/>
	</linearGradient>
	<path class="st2" d="M166.4,88.2c2.4,4.3,1.5,9.4-1.9,11.2c-3.4,1.9-8.1-0.2-10.5-4.5c-2.4-4.3-1.5-9.4,1.9-11.2
		C159.3,81.9,164,83.9,166.4,88.2z"/>
	<linearGradient id="SVGID_4_" gradientUnits="userSpaceOnUse" x1="38.1434" y1="52.1709" x2="56.81" y2="77.3375">
		<stop  offset="0" style="stop-color:#B94503"/>
		<stop  offset="1" style="stop-color:#E86C00"/>
	</linearGradient>
	<path class="st3" d="M64.4,95.2c0,0-1.9-3-4.5-7.2c-0.5-2.5-1.6-5.4-3.4-8.7C46,59.3,37.1,56,32,56.5l3.5-9.2c0,0,1.7,0,4.3,0.9
		C40.5,48.5,62.2,57.6,64.4,95.2z"/>
	<linearGradient id="SVGID_5_" gradientUnits="userSpaceOnUse" x1="86.2796" y1="172.0458" x2="55.7958" y2="93.8746">
		<stop  offset="0" style="stop-color:#FF9524"/>
		<stop  offset="1" style="stop-color:#FAE377"/>
	</linearGradient>
	<path class="st4" d="M86.9,164.2c-6.7-3.8-11.9-11.3-14.4-15.4c-4.5-7.2-7.1-14.3-8.5-20.8c0,0,0,0,0-0.1c-0.5-2.1-0.8-4.2-1-6.1
		c-1.1-11.2,1-21.6,3.5-27.3c1.6-3.6,4-4.6,4-4.6c-1.1-0.4-1.9-0.5-2.4-0.5l0,0l0,0c-0.2,0-0.4,0-0.4,0c-2,0-4.5,0.9-7.9,6
		c-0.4,0.6-0.8,1.3-1.1,2c0,0,0,0.1,0,0.1c-2.8,5.5-4.4,10.9-5.2,19.7c0,0,0,0.1,0,0.1c-0.2,3.2-0.1,6.8,0.4,10.3c0,0,0,0,0,0
		c0.5,3.4,1.4,6.8,2.5,10c0.5,1.3,1,2.7,1.6,4.1c3.7,8.7,9.3,16.3,16.4,22.3c3.5,2.8,10.5,6.9,19,4.6c2.2-0.6,4.5-1.6,6.8-3.1
		C95.4,167.4,90.9,166.5,86.9,164.2z"/>
	<path class="st5" d="M106.2,101.1L106.2,101.1C106.2,101.1,106.2,101.1,106.2,101.1C106.2,101.1,106.2,101.1,106.2,101.1z"/>
	<linearGradient id="SVGID_6_" gradientUnits="userSpaceOnUse" x1="112.5001" y1="165.1927" x2="69.5844" y2="47.0937">
		<stop  offset="0" style="stop-color:#FF9524"/>
		<stop  offset="1" style="stop-color:#FAE377"/>
	</linearGradient>
	<path class="st6" d="M129.1,174.3C129.1,174.3,129.1,174.3,129.1,174.3c-7.8,0.7-13.9-5.8-15.4-7.6c-7.3-8.9-16-19.6-21.4-42.5
		c-4.7-20.1-4.6-35.8-3.3-47.6c0,0,0,0,0,0C90.3,63.8,95.2,63,95.2,63c-2.4-1.2-5.4-1.1-7.7,0.3c0,0,0,0,0,0
		c-8.6,5.1-18.7,30.9-7.7,68.8c0,0,0,0.1,0.1,0.3c0,0.1,0,0.1,0.1,0.2c1.7,5.5,17.7,52.8,46.6,45c0,0,0,0,0,0
		c6.3-1.8,9.5-5.5,9.5-5.5C133.5,173.4,131.1,174.1,129.1,174.3z"/>
	<path class="st7" d="M82,161.7"/>
	<linearGradient id="SVGID_7_" gradientUnits="userSpaceOnUse" x1="116.5193" y1="116.5941" x2="174.384" y2="116.5941">
		<stop  offset="0" style="stop-color:#FFA635"/>
		<stop  offset="1" style="stop-color:#FAE377"/>
	</linearGradient>
	<path class="st8" d="M174.4,117.9c0,25.7-15.9,47.6-38.5,56.5c7.9-4.8,17.5-12.9,21.1-25.1c6.1-20.5-29-32.1-37.4-55.8
		c-3.9-11.1-3.6-19.6-2.1-25.5c3.2-10.6,10.4-9,10.4-9c-6,0.7-6.4,36.3,25.1,44.5c0,0,0,0,0,0c3.2,0.8,6.8,1.4,10.7,1.6
		c1.2,0,7.6-0.2,7.5-6.4c0,0,1.4,4.4,1.7,6.2C173.9,109,174.4,113.4,174.4,117.9z"/>
	<linearGradient id="SVGID_8_" gradientUnits="userSpaceOnUse" x1="158.9389" y1="148.273" x2="93.1134" y2="71.1538">
		<stop  offset="0" style="stop-color:#FF8135"/>
		<stop  offset="1" style="stop-color:#FAE377"/>
	</linearGradient>
	<path class="st9" d="M135.9,174.3c7.9-4.8,17.5-12.9,21.1-25.1c6.1-20.5-29-32.1-37.4-55.8c-3.9-11.1-3.6-19.6-2.1-25.5
		c3.2-10.6,10.4-9,10.4-9c-5.2,0.6-6.2,27.9,14.7,40.2c9.6,5.6,16.5,14.9,18.5,25.8C163.9,140.2,161.3,160.3,135.9,174.3z"/>
</g>
<g id="DESIGNED_BY_FREEPIK">
</g>
</svg>
